<svg width="1512" height="982" viewBox="0 0 1512 982" fill="none" xmlns="http://www.w3.org/2000/svg">
<g clip-path="url(#clip0_106_198)">
<rect width="1512" height="982" fill="white"/>
<g filter="url(#filter0_f_106_198)">
<path fill-rule="evenodd" clip-rule="evenodd" d="M340.357 159.953C399.1 153.294 475.264 143.453 506.495 186.187C537.271 228.3 475.951 274.199 458.383 321.455C444.033 360.052 457.714 412.139 415.491 430.972C372.794 450.017 325.118 419.609 282.975 399.696C245.275 381.882 206.802 361.96 194.94 326.759C182.361 289.432 194.687 249.659 221.897 218.447C250.48 185.658 292.713 165.353 340.357 159.953Z" fill="#684756"/>
</g>
<g filter="url(#filter1_f_106_198)">
<path fill-rule="evenodd" clip-rule="evenodd" d="M732.843 600.476C787.583 604.717 817.2 646.286 844.833 681.255C866.248 708.354 867.573 737.896 866.185 769.213C864.081 816.688 888.628 876.145 835.019 902.709C779.469 930.234 701.005 906.945 646.976 877.831C602.745 853.997 601.164 810.254 590.18 770.776C579.706 733.136 559.303 693.977 586.713 661.257C617.578 624.414 674.275 595.938 732.843 600.476Z" fill="#B19EC7"/>
</g>
<g filter="url(#filter2_f_106_198)">
<path fill-rule="evenodd" clip-rule="evenodd" d="M1110.21 115.682C1146.8 123.925 1176.09 147.842 1208 172.425C1258.83 211.592 1347.19 222.368 1347.99 298.884C1348.8 375.12 1260.72 388.471 1210.7 428.841C1177.97 455.258 1148.71 493.999 1110.21 490.816C1073.25 487.76 1053.23 438.522 1021.79 413.221C970.551 371.982 884.848 375.066 871.733 298.884C858.862 224.115 920.227 158.188 971.153 119.065C1012.59 87.2344 1062.73 104.985 1110.21 115.682Z" fill="#F5D0C5"/>
</g>
</g>
<defs>
<filter id="filter0_f_106_198" x="-110" y="-146" width="925" height="883" filterUnits="userSpaceOnUse" color-interpolation-filters="sRGB">
<feFlood flood-opacity="0" result="BackgroundImageFix"/>
<feBlend mode="normal" in="SourceGraphic" in2="BackgroundImageFix" result="shape"/>
<feGaussianBlur stdDeviation="150" result="effect1_foregroundBlur_106_198"/>
</filter>
<filter id="filter1_f_106_198" x="273" y="300" width="897" height="915" filterUnits="userSpaceOnUse" color-interpolation-filters="sRGB">
<feFlood flood-opacity="0" result="BackgroundImageFix"/>
<feBlend mode="normal" in="SourceGraphic" in2="BackgroundImageFix" result="shape"/>
<feGaussianBlur stdDeviation="150" result="effect1_foregroundBlur_106_198"/>
</filter>
<filter id="filter2_f_106_198" x="570" y="-199" width="1078" height="990" filterUnits="userSpaceOnUse" color-interpolation-filters="sRGB">
<feFlood flood-opacity="0" result="BackgroundImageFix"/>
<feBlend mode="normal" in="SourceGraphic" in2="BackgroundImageFix" result="shape"/>
<feGaussianBlur stdDeviation="150" result="effect1_foregroundBlur_106_198"/>
</filter>
<clipPath id="clip0_106_198">
<rect width="1512" height="982" fill="white"/>
</clipPath>
</defs>
</svg>
