<svg width="1510" height="982" viewBox="0 0 1510 982" fill="none" xmlns="http://www.w3.org/2000/svg">
<g clip-path="url(#clip0_110_20)">
<rect width="1512" height="982" transform="translate(-2)" fill="white"/>
<g filter="url(#filter0_f_110_20)">
<path fill-rule="evenodd" clip-rule="evenodd" d="M338.357 159.953C397.1 153.294 473.264 143.453 504.495 186.187C535.271 228.3 473.951 274.199 456.383 321.455C442.033 360.052 455.714 412.139 413.491 430.972C370.794 450.017 323.118 419.609 280.975 399.696C243.275 381.882 204.802 361.96 192.94 326.759C180.361 289.432 192.687 249.659 219.897 218.447C248.48 185.658 290.713 165.353 338.357 159.953Z" fill="#684756"/>
</g>
<g filter="url(#filter1_f_110_20)">
<path fill-rule="evenodd" clip-rule="evenodd" d="M730.843 600.476C785.583 604.717 815.2 646.286 842.833 681.255C864.248 708.354 865.573 737.896 864.185 769.213C862.081 816.688 886.628 876.145 833.019 902.709C777.469 930.234 699.005 906.945 644.976 877.831C600.745 853.997 599.164 810.254 588.18 770.776C577.706 733.136 557.303 693.977 584.713 661.257C615.578 624.414 672.275 595.938 730.843 600.476Z" fill="#B19EC7"/>
</g>
<g filter="url(#filter2_f_110_20)">
<path fill-rule="evenodd" clip-rule="evenodd" d="M1108.21 115.682C1144.8 123.925 1174.09 147.842 1206 172.425C1256.83 211.592 1345.19 222.368 1345.99 298.884C1346.8 375.12 1258.72 388.471 1208.7 428.841C1175.97 455.258 1146.71 493.999 1108.21 490.816C1071.25 487.76 1051.23 438.522 1019.79 413.221C968.551 371.982 882.848 375.066 869.733 298.884C856.862 224.115 918.227 158.188 969.153 119.065C1010.59 87.2344 1060.73 104.985 1108.21 115.682Z" fill="#F5D0C5"/>
</g>
</g>
<defs>
<filter id="filter0_f_110_20" x="-112" y="-146" width="925" height="883" filterUnits="userSpaceOnUse" color-interpolation-filters="sRGB">
<feFlood flood-opacity="0" result="BackgroundImageFix"/>
<feBlend mode="normal" in="SourceGraphic" in2="BackgroundImageFix" result="shape"/>
<feGaussianBlur stdDeviation="150" result="effect1_foregroundBlur_110_20"/>
</filter>
<filter id="filter1_f_110_20" x="271" y="300" width="897" height="915" filterUnits="userSpaceOnUse" color-interpolation-filters="sRGB">
<feFlood flood-opacity="0" result="BackgroundImageFix"/>
<feBlend mode="normal" in="SourceGraphic" in2="BackgroundImageFix" result="shape"/>
<feGaussianBlur stdDeviation="150" result="effect1_foregroundBlur_110_20"/>
</filter>
<filter id="filter2_f_110_20" x="568" y="-199" width="1078" height="990" filterUnits="userSpaceOnUse" color-interpolation-filters="sRGB">
<feFlood flood-opacity="0" result="BackgroundImageFix"/>
<feBlend mode="normal" in="SourceGraphic" in2="BackgroundImageFix" result="shape"/>
<feGaussianBlur stdDeviation="150" result="effect1_foregroundBlur_110_20"/>
</filter>
<clipPath id="clip0_110_20">
<rect width="1512" height="982" fill="white" transform="translate(-2)"/>
</clipPath>
</defs>
</svg>
