<svg width="1510" height="980" viewBox="0 0 1510 980" fill="none" xmlns="http://www.w3.org/2000/svg">
<g clip-path="url(#clip0_106_186)">
<rect width="1512" height="982" transform="translate(0 -2)" fill="white"/>
<g filter="url(#filter0_f_106_186)">
<path fill-rule="evenodd" clip-rule="evenodd" d="M340.357 157.953C399.1 151.294 475.264 141.453 506.495 184.187C537.271 226.3 475.951 272.199 458.383 319.455C444.033 358.052 457.714 410.139 415.491 428.972C372.794 448.017 325.118 417.609 282.975 397.696C245.275 379.882 206.802 359.96 194.94 324.759C182.361 287.432 194.687 247.659 221.897 216.447C250.48 183.658 292.713 163.353 340.357 157.953Z" fill="#684756"/>
</g>
<g filter="url(#filter1_f_106_186)">
<path fill-rule="evenodd" clip-rule="evenodd" d="M732.843 598.476C787.583 602.717 817.2 644.286 844.833 679.255C866.248 706.354 867.573 735.896 866.185 767.213C864.081 814.688 888.628 874.145 835.019 900.709C779.469 928.234 701.005 904.945 646.976 875.831C602.745 851.997 601.164 808.254 590.18 768.776C579.706 731.136 559.303 691.977 586.713 659.257C617.578 622.414 674.275 593.938 732.843 598.476Z" fill="#B19EC7"/>
</g>
<g filter="url(#filter2_f_106_186)">
<path fill-rule="evenodd" clip-rule="evenodd" d="M1110.21 113.682C1146.8 121.925 1176.09 145.842 1208 170.425C1258.83 209.592 1347.19 220.368 1347.99 296.884C1348.8 373.12 1260.72 386.471 1210.7 426.841C1177.97 453.258 1148.71 491.999 1110.21 488.816C1073.25 485.76 1053.23 436.522 1021.79 411.221C970.551 369.982 884.848 373.066 871.733 296.884C858.862 222.115 920.227 156.188 971.153 117.065C1012.59 85.2344 1062.73 102.985 1110.21 113.682Z" fill="#F5D0C5"/>
</g>
</g>
<defs>
<filter id="filter0_f_106_186" x="-110" y="-148" width="925" height="883" filterUnits="userSpaceOnUse" color-interpolation-filters="sRGB">
<feFlood flood-opacity="0" result="BackgroundImageFix"/>
<feBlend mode="normal" in="SourceGraphic" in2="BackgroundImageFix" result="shape"/>
<feGaussianBlur stdDeviation="150" result="effect1_foregroundBlur_106_186"/>
</filter>
<filter id="filter1_f_106_186" x="273" y="298" width="897" height="915" filterUnits="userSpaceOnUse" color-interpolation-filters="sRGB">
<feFlood flood-opacity="0" result="BackgroundImageFix"/>
<feBlend mode="normal" in="SourceGraphic" in2="BackgroundImageFix" result="shape"/>
<feGaussianBlur stdDeviation="150" result="effect1_foregroundBlur_106_186"/>
</filter>
<filter id="filter2_f_106_186" x="570" y="-201" width="1078" height="990" filterUnits="userSpaceOnUse" color-interpolation-filters="sRGB">
<feFlood flood-opacity="0" result="BackgroundImageFix"/>
<feBlend mode="normal" in="SourceGraphic" in2="BackgroundImageFix" result="shape"/>
<feGaussianBlur stdDeviation="150" result="effect1_foregroundBlur_106_186"/>
</filter>
<clipPath id="clip0_106_186">
<rect width="1512" height="982" fill="white" transform="translate(0 -2)"/>
</clipPath>
</defs>
</svg>
