<svg width="1512" height="981" viewBox="0 0 1512 981" fill="none" xmlns="http://www.w3.org/2000/svg">
<g clip-path="url(#clip0_106_190)">
<rect width="1512" height="982" transform="translate(0 -1)" fill="white"/>
<g filter="url(#filter0_f_106_190)">
<path fill-rule="evenodd" clip-rule="evenodd" d="M340.357 158.953C399.1 152.294 475.264 142.453 506.495 185.187C537.271 227.3 475.951 273.199 458.383 320.455C444.033 359.052 457.714 411.139 415.491 429.972C372.794 449.017 325.118 418.609 282.975 398.696C245.275 380.882 206.802 360.96 194.94 325.759C182.361 288.432 194.687 248.659 221.897 217.447C250.48 184.658 292.713 164.353 340.357 158.953Z" fill="#684756"/>
</g>
<g filter="url(#filter1_f_106_190)">
<path fill-rule="evenodd" clip-rule="evenodd" d="M732.843 599.476C787.583 603.717 817.2 645.286 844.833 680.255C866.248 707.354 867.573 736.896 866.185 768.213C864.081 815.688 888.628 875.145 835.019 901.709C779.469 929.234 701.005 905.945 646.976 876.831C602.745 852.997 601.164 809.254 590.18 769.776C579.706 732.136 559.303 692.977 586.713 660.257C617.578 623.414 674.275 594.938 732.843 599.476Z" fill="#B19EC7"/>
</g>
<g filter="url(#filter2_f_106_190)">
<path fill-rule="evenodd" clip-rule="evenodd" d="M1110.21 114.682C1146.8 122.925 1176.09 146.842 1208 171.425C1258.83 210.592 1347.19 221.368 1347.99 297.884C1348.8 374.12 1260.72 387.471 1210.7 427.841C1177.97 454.258 1148.71 492.999 1110.21 489.816C1073.25 486.76 1053.23 437.522 1021.79 412.221C970.551 370.982 884.848 374.066 871.733 297.884C858.862 223.115 920.227 157.188 971.153 118.065C1012.59 86.2344 1062.73 103.985 1110.21 114.682Z" fill="#F5D0C5"/>
</g>
</g>
<defs>
<filter id="filter0_f_106_190" x="-110" y="-147" width="925" height="883" filterUnits="userSpaceOnUse" color-interpolation-filters="sRGB">
<feFlood flood-opacity="0" result="BackgroundImageFix"/>
<feBlend mode="normal" in="SourceGraphic" in2="BackgroundImageFix" result="shape"/>
<feGaussianBlur stdDeviation="150" result="effect1_foregroundBlur_106_190"/>
</filter>
<filter id="filter1_f_106_190" x="273" y="299" width="897" height="915" filterUnits="userSpaceOnUse" color-interpolation-filters="sRGB">
<feFlood flood-opacity="0" result="BackgroundImageFix"/>
<feBlend mode="normal" in="SourceGraphic" in2="BackgroundImageFix" result="shape"/>
<feGaussianBlur stdDeviation="150" result="effect1_foregroundBlur_106_190"/>
</filter>
<filter id="filter2_f_106_190" x="570" y="-200" width="1078" height="990" filterUnits="userSpaceOnUse" color-interpolation-filters="sRGB">
<feFlood flood-opacity="0" result="BackgroundImageFix"/>
<feBlend mode="normal" in="SourceGraphic" in2="BackgroundImageFix" result="shape"/>
<feGaussianBlur stdDeviation="150" result="effect1_foregroundBlur_106_190"/>
</filter>
<clipPath id="clip0_106_190">
<rect width="1512" height="982" fill="white" transform="translate(0 -1)"/>
</clipPath>
</defs>
</svg>
